# xmcd CD database file
#
# Track frame offsets:
#	150
#	8102
#	20330
#	39592
#	54420
#	67712
#	78605
#	90005
#	103510
#	115157
#	137822
#	160165
#
# Disc length: 2416 seconds
#
# Revision: 0
# Processed by: cddbd v1.4PL0 Copyright (c) Steve Scherf et al.
# Submitted via: CDex 1.50
#
DISCID=84096e0c
DTITLE=Varios - Salsa 3
DYEAR=1998
DGENRE=Salsa
TTITLE0=Mambo 8
TTITLE1=El negro José
TTITLE2=Cruz de navajas
TTITLE3=El maletero
TTITLE4=Micaela
TTITLE5=Besito de coco
TTITLE6=Marinero
TTITLE7=Cañonazo
TTITLE8=Cuando salí de Cuba
TTITLE9=Lluvia
TTITLE10=Tú con él
TTITLE11=Mata siguaraya
EXTD=YEAR: 1998
EXTT0=
EXTT1=
EXTT2=
EXTT3=
EXTT4=
EXTT5=
EXTT6=
EXTT7=
EXTT8=
EXTT9=
EXTT10=
EXTT11=
PLAYORDER=
